<svg width="100" height="100" viewBox="0 0 100 100" fill="none" xmlns="http://www.w3.org/2000/svg">
<path d="M71.8919 47.3652C75.7236 47.5913 77.0912 49.1122 77.4293 51.8249C77.8801 55.3289 75.9693 65.4512 71.103 60.1377" stroke="black" stroke-width="2" stroke-miterlimit="10" stroke-linecap="round"/>
<path d="M27.3779 47.3652C23.5462 47.5913 22.0947 50.3775 21.7566 53.0902C21.3058 56.5942 23.4317 62.8233 28.2777 62.8233" stroke="black" stroke-width="2" stroke-miterlimit="10" stroke-linecap="round"/>
<path d="M56.2673 47.0634C56.9925 46.2165 58.7851 44.5227 60.1546 44.5232C61.5241 44.5237 63.4357 46.7378 64.2203 47.8449" stroke="black" stroke-width="2" stroke-linecap="round"/>
<path d="M35.2688 46.6919C35.9939 45.9688 37.7866 44.5228 39.1561 44.5232C40.5256 44.5236 42.4372 46.4139 43.2218 47.359" stroke="black" stroke-width="2" stroke-linecap="round"/>
<circle cx="39" cy="47" r="2" fill="black"/>
<circle cx="60" cy="47" r="2" fill="black"/>
<path d="M49.1466 68.0999C45.9115 74.3006 36.2605 72.0937 35.3396 71.867C35.2941 71.8558 35.27 71.8212 35.2737 71.7745C35.3436 70.8956 36.344 62.5591 49.1468 62.5591C49.1468 62.5591 62.215 62.5591 62.316 69.8557C62.3166 69.9038 62.2888 69.9461 62.2414 69.9544C61.3089 70.1186 51.971 71.6606 49.1466 68.0999Z" fill="black"/>
<path d="M50.0305 47.1055C50.0305 47.1055 36.6508 67.029 50.0306 61.6464" stroke="black" stroke-width="2" stroke-miterlimit="10" stroke-linecap="round"/>
<path d="M76.8535 31.3146C75.2758 26.5673 68.0631 23.8545 68.0631 23.8545C64.9076 20.0115 61.0758 16.9596 50.8203 16.0554C40.5648 15.1511 32.9014 23.8545 32.9014 23.8545C32.9014 23.8545 28.168 26.4542 24.1109 31.3146C20.0538 36.1749 23.0966 48.7213 23.0966 48.7213L28.9569 47.591C28.9569 41.8264 28.9569 36.627 28.9569 36.4009C28.9569 36.4009 30.5347 29.9582 36.7331 29.8451C42.9315 29.7321 39.8886 29.8452 42.1426 31.8797C44.3965 33.9143 51.0457 39.3397 56.906 33.5752C62.7663 27.8106 67.8799 29.5529 69.5704 32.7177C71.1482 35.8826 71.4577 39.2267 71.4577 46.4607C71.4577 46.7998 71.4577 47.2519 71.4577 47.591L77.9805 47.478C79.671 40.9222 78.4313 36.0619 76.8535 31.3146Z" fill="black"/>
<path d="M22.8541 48.8373C22.8541 48.8373 19.262 36.0621 23.3192 31.2017C27.3763 26.3414 32.1096 23.7417 32.1096 23.7417C32.1096 23.7417 39.7731 14.9253 50.0286 15.9426C60.2841 16.9598 64.1158 20.0117 67.2714 23.7417C67.2714 23.7417 74.4058 27.181 76.0618 31.2017C78.1347 36.2346 78.569 42.2113 76.6022 48.7601" stroke="black" stroke-width="2" stroke-miterlimit="10" stroke-linecap="round"/>
<path d="M32.2396 75.0762C28.2161 69.1331 28.2161 57.6299 28.2161 57.6299C28.2161 57.6299 28.2161 36.5818 28.2161 36.1316C28.2161 36.1316 29.7807 29.7159 35.9276 29.6033C42.0745 29.4908 39.057 29.6033 41.2922 31.6294C43.5274 33.6554 50.1214 39.0581 55.933 33.3177C61.7446 27.5773 67.3327 29.1531 69.0091 32.3047C70.5738 35.4563 70.9091 38.9455 70.9091 46.1492C70.9091 53.3528 70.8623 62.0556 70.4962 64.9437C70.13 67.8318 69.6797 78.5655 58.5035 82.2798C47.3273 85.9942 36.9336 83.1803 32.2396 75.0762Z" stroke="black" stroke-width="2" stroke-miterlimit="10" stroke-linecap="round"/>
</svg>
